# xmcd
#
# Track frame offsets: 
#        150
#        22278
#        46809
#        67047
#        83937
#        102231
#        120687
#        145299
#        164484
#        186612
#
# Disc length: 2777 seconds
#
# Revision: 1
# Processed by: cddbd v1.5.2PL0 Copyright (c) Steve Scherf et al.
# Submitted via: ExactAudioCopyFreeDBPlugin 1.0
#
DISCID=960ad70a
DTITLE=Cẩm Ly - Người đến sau...Sao anh ra đi
DYEAR=2005
DGENRE=Vietnamese
TTITLE0=Người đến sau
TTITLE1=Chim trắng mồ côi
TTITLE2=Hai trái tim xa lạ
TTITLE3=Vấn vương một nụ hồng
TTITLE4=Sao anh ra đi
TTITLE5=Người ơi ta chia tay
TTITLE6=Vọng kim lang
TTITLE7=Em chỉ yêu một người
TTITLE8=Rồi người sẽ có...
TTITLE9=LK Đón xuân - Xuân đã về
EXTD=
EXTT0=
EXTT1=
EXTT2=
EXTT3=
EXTT4=
EXTT5=
EXTT6=
EXTT7=
EXTT8=
EXTT9=
PLAYORDER=
